<svg width="20" height="30" viewBox="0 0 20 30" fill="none" xmlns="http://www.w3.org/2000/svg">
<path d="M3.45001 29.8801C2.78335 29.8801 2.20001 29.6468 1.70001 29.1801C1.20001 28.7135 0.950012 28.1468 0.950012 27.4801C0.950012 26.8135 1.18335 26.2468 1.65001 25.7801L12.15 15.2801L1.65001 4.88013C1.18335 4.41346 0.950012 3.84679 0.950012 3.18013C0.950012 2.51346 1.18335 1.93013 1.65001 1.43013C2.11668 0.930126 2.70001 0.680126 3.40001 0.680126C4.10001 0.680126 4.68335 0.91346 5.15001 1.38013L19.05 15.2801L5.15001 29.1801C4.68335 29.6468 4.11668 29.8801 3.45001 29.8801Z" fill="#111111"/>
</svg>
