<svg width="20" height="30" viewBox="0 0 20 30" fill="none" xmlns="http://www.w3.org/2000/svg">
<path d="M16.55 29.8801C15.8833 29.8801 15.3167 29.6468 14.85 29.1801L0.950012 15.2801L14.85 1.38013C15.3167 0.91346 15.8833 0.680126 16.55 0.680126C17.2167 0.680126 17.8 0.91346 18.3 1.38013C18.8 1.84679 19.05 2.41346 19.05 3.08013C19.05 3.74679 18.7833 4.34679 18.25 4.88013L7.85001 15.2801L18.25 25.6801C18.7833 26.1468 19.05 26.7301 19.05 27.4301C19.05 28.1301 18.8 28.7135 18.3 29.1801C17.8 29.6468 17.2167 29.8801 16.55 29.8801Z" fill="#111111"/>
</svg>
